<mxfile host="app.diagrams.net" modified="2024-05-14T15:23:00.579Z" agent="Mozilla/5.0 (Macintosh; Intel Mac OS X 10_15_7) AppleWebKit/537.36 (KHTML, like Gecko) Chrome/124.0.0.0 Safari/537.36" etag="NzCwrg5QFGOWLsDTsDFd" version="24.4.0" type="device">
  <diagram name="Página-1" id="L5cHkPY49YGJe22XP9xP">
    <mxGraphModel dx="1972" dy="628" grid="1" gridSize="10" guides="1" tooltips="1" connect="1" arrows="1" fold="1" page="1" pageScale="1" pageWidth="850" pageHeight="1100" math="0" shadow="0">
      <root>
        <mxCell id="0" />
        <mxCell id="1" parent="0" />
        <mxCell id="0sVaL69Y4_VdXsr_xKcZ-1" value="Cliente" style="swimlane;childLayout=stackLayout;horizontal=1;startSize=50;horizontalStack=0;rounded=1;fontSize=14;fontStyle=0;strokeWidth=2;resizeParent=0;resizeLast=1;shadow=0;dashed=0;align=center;arcSize=4;whiteSpace=wrap;html=1;" vertex="1" parent="1">
          <mxGeometry x="10" y="280" width="160" height="140" as="geometry" />
        </mxCell>
        <mxCell id="0sVaL69Y4_VdXsr_xKcZ-2" value="id (PK)&lt;div&gt;nombre&lt;br&gt;apellido&lt;/div&gt;&lt;div&gt;direccion&lt;/div&gt;&lt;div&gt;DNI&lt;/div&gt;&lt;div&gt;&lt;br&gt;&lt;/div&gt;" style="align=left;strokeColor=none;fillColor=none;spacingLeft=4;fontSize=12;verticalAlign=top;resizable=0;rotatable=0;part=1;html=1;" vertex="1" parent="0sVaL69Y4_VdXsr_xKcZ-1">
          <mxGeometry y="50" width="160" height="90" as="geometry" />
        </mxCell>
        <mxCell id="0sVaL69Y4_VdXsr_xKcZ-3" value="Producto" style="swimlane;childLayout=stackLayout;horizontal=1;startSize=50;horizontalStack=0;rounded=1;fontSize=14;fontStyle=0;strokeWidth=2;resizeParent=0;resizeLast=1;shadow=0;dashed=0;align=center;arcSize=4;whiteSpace=wrap;html=1;" vertex="1" parent="1">
          <mxGeometry x="600" y="280" width="160" height="120" as="geometry" />
        </mxCell>
        <mxCell id="0sVaL69Y4_VdXsr_xKcZ-4" value="&lt;div&gt;id (PK)&lt;/div&gt;&lt;div&gt;codigo&lt;/div&gt;" style="align=left;strokeColor=none;fillColor=none;spacingLeft=4;fontSize=12;verticalAlign=top;resizable=0;rotatable=0;part=1;html=1;" vertex="1" parent="0sVaL69Y4_VdXsr_xKcZ-3">
          <mxGeometry y="50" width="160" height="70" as="geometry" />
        </mxCell>
        <mxCell id="0sVaL69Y4_VdXsr_xKcZ-15" style="edgeStyle=orthogonalEdgeStyle;rounded=0;orthogonalLoop=1;jettySize=auto;html=1;exitX=0.5;exitY=1;exitDx=0;exitDy=0;entryX=0.5;entryY=0;entryDx=0;entryDy=0;" edge="1" parent="1" source="0sVaL69Y4_VdXsr_xKcZ-11" target="0sVaL69Y4_VdXsr_xKcZ-19">
          <mxGeometry relative="1" as="geometry" />
        </mxCell>
        <mxCell id="0sVaL69Y4_VdXsr_xKcZ-11" value="DNI" style="ellipse;whiteSpace=wrap;html=1;align=center;" vertex="1" parent="1">
          <mxGeometry x="-220" y="40" width="100" height="50" as="geometry" />
        </mxCell>
        <mxCell id="0sVaL69Y4_VdXsr_xKcZ-16" style="edgeStyle=orthogonalEdgeStyle;rounded=0;orthogonalLoop=1;jettySize=auto;html=1;exitX=0.5;exitY=1;exitDx=0;exitDy=0;entryX=0.5;entryY=0;entryDx=0;entryDy=0;" edge="1" parent="1" source="0sVaL69Y4_VdXsr_xKcZ-12" target="0sVaL69Y4_VdXsr_xKcZ-19">
          <mxGeometry relative="1" as="geometry">
            <mxPoint x="-20" y="140" as="targetPoint" />
            <Array as="points">
              <mxPoint x="-60" y="120" />
              <mxPoint y="120" />
            </Array>
          </mxGeometry>
        </mxCell>
        <mxCell id="0sVaL69Y4_VdXsr_xKcZ-12" value="Nombre" style="ellipse;whiteSpace=wrap;html=1;align=center;" vertex="1" parent="1">
          <mxGeometry x="-110" y="40" width="100" height="40" as="geometry" />
        </mxCell>
        <mxCell id="0sVaL69Y4_VdXsr_xKcZ-17" style="edgeStyle=orthogonalEdgeStyle;rounded=0;orthogonalLoop=1;jettySize=auto;html=1;exitX=0.5;exitY=1;exitDx=0;exitDy=0;entryX=0.5;entryY=0;entryDx=0;entryDy=0;" edge="1" parent="1" source="0sVaL69Y4_VdXsr_xKcZ-13" target="0sVaL69Y4_VdXsr_xKcZ-19">
          <mxGeometry relative="1" as="geometry">
            <mxPoint x="-20" y="140" as="targetPoint" />
            <Array as="points">
              <mxPoint x="50" y="120" />
              <mxPoint y="120" />
            </Array>
          </mxGeometry>
        </mxCell>
        <mxCell id="0sVaL69Y4_VdXsr_xKcZ-13" value="Apellido" style="ellipse;whiteSpace=wrap;html=1;align=center;" vertex="1" parent="1">
          <mxGeometry y="40" width="100" height="40" as="geometry" />
        </mxCell>
        <mxCell id="0sVaL69Y4_VdXsr_xKcZ-18" style="edgeStyle=orthogonalEdgeStyle;rounded=0;orthogonalLoop=1;jettySize=auto;html=1;exitX=0.5;exitY=1;exitDx=0;exitDy=0;entryX=0.5;entryY=0;entryDx=0;entryDy=0;" edge="1" parent="1" source="0sVaL69Y4_VdXsr_xKcZ-14" target="0sVaL69Y4_VdXsr_xKcZ-19">
          <mxGeometry relative="1" as="geometry">
            <Array as="points">
              <mxPoint x="160" y="120" />
              <mxPoint y="120" />
            </Array>
          </mxGeometry>
        </mxCell>
        <mxCell id="0sVaL69Y4_VdXsr_xKcZ-14" value="Dirección" style="ellipse;whiteSpace=wrap;html=1;align=center;" vertex="1" parent="1">
          <mxGeometry x="110" y="40" width="100" height="40" as="geometry" />
        </mxCell>
        <mxCell id="0sVaL69Y4_VdXsr_xKcZ-19" value="Cliente" style="whiteSpace=wrap;html=1;align=center;" vertex="1" parent="1">
          <mxGeometry x="-50" y="150" width="100" height="40" as="geometry" />
        </mxCell>
        <mxCell id="0sVaL69Y4_VdXsr_xKcZ-20" value="Producto" style="whiteSpace=wrap;html=1;align=center;" vertex="1" parent="1">
          <mxGeometry x="580" y="150" width="100" height="40" as="geometry" />
        </mxCell>
        <mxCell id="0sVaL69Y4_VdXsr_xKcZ-26" style="edgeStyle=orthogonalEdgeStyle;rounded=0;orthogonalLoop=1;jettySize=auto;html=1;exitX=0.5;exitY=1;exitDx=0;exitDy=0;" edge="1" parent="1" source="0sVaL69Y4_VdXsr_xKcZ-21">
          <mxGeometry relative="1" as="geometry">
            <mxPoint x="620" y="150" as="targetPoint" />
          </mxGeometry>
        </mxCell>
        <mxCell id="0sVaL69Y4_VdXsr_xKcZ-21" value="Codigo" style="ellipse;whiteSpace=wrap;html=1;align=center;" vertex="1" parent="1">
          <mxGeometry x="640" y="40" width="100" height="40" as="geometry" />
        </mxCell>
        <mxCell id="0sVaL69Y4_VdXsr_xKcZ-23" style="edgeStyle=orthogonalEdgeStyle;rounded=0;orthogonalLoop=1;jettySize=auto;html=1;exitX=0.5;exitY=1;exitDx=0;exitDy=0;entryX=0.5;entryY=0;entryDx=0;entryDy=0;" edge="1" parent="1" source="0sVaL69Y4_VdXsr_xKcZ-22" target="0sVaL69Y4_VdXsr_xKcZ-19">
          <mxGeometry relative="1" as="geometry">
            <Array as="points">
              <mxPoint x="-280" y="120" />
              <mxPoint y="120" />
            </Array>
          </mxGeometry>
        </mxCell>
        <mxCell id="0sVaL69Y4_VdXsr_xKcZ-22" value="ID" style="ellipse;whiteSpace=wrap;html=1;align=center;fontStyle=4;" vertex="1" parent="1">
          <mxGeometry x="-330" y="40" width="100" height="40" as="geometry" />
        </mxCell>
        <mxCell id="0sVaL69Y4_VdXsr_xKcZ-24" value="Id" style="ellipse;whiteSpace=wrap;html=1;align=center;fontStyle=4;" vertex="1" parent="1">
          <mxGeometry x="520" y="40" width="100" height="40" as="geometry" />
        </mxCell>
        <mxCell id="0sVaL69Y4_VdXsr_xKcZ-25" style="edgeStyle=orthogonalEdgeStyle;rounded=0;orthogonalLoop=1;jettySize=auto;html=1;exitX=0.5;exitY=1;exitDx=0;exitDy=0;entryX=0.411;entryY=-0.01;entryDx=0;entryDy=0;entryPerimeter=0;" edge="1" parent="1" source="0sVaL69Y4_VdXsr_xKcZ-24" target="0sVaL69Y4_VdXsr_xKcZ-20">
          <mxGeometry relative="1" as="geometry">
            <Array as="points">
              <mxPoint x="570" y="115" />
              <mxPoint x="621" y="115" />
            </Array>
          </mxGeometry>
        </mxCell>
        <mxCell id="0sVaL69Y4_VdXsr_xKcZ-27" value="cliente_producto&lt;br&gt;Compra" style="whiteSpace=wrap;html=1;align=center;" vertex="1" parent="1">
          <mxGeometry x="290" y="150" width="100" height="40" as="geometry" />
        </mxCell>
        <mxCell id="0sVaL69Y4_VdXsr_xKcZ-30" style="edgeStyle=orthogonalEdgeStyle;rounded=0;orthogonalLoop=1;jettySize=auto;html=1;exitX=0.5;exitY=1;exitDx=0;exitDy=0;entryX=0.5;entryY=0;entryDx=0;entryDy=0;" edge="1" parent="1" source="0sVaL69Y4_VdXsr_xKcZ-28" target="0sVaL69Y4_VdXsr_xKcZ-27">
          <mxGeometry relative="1" as="geometry" />
        </mxCell>
        <mxCell id="0sVaL69Y4_VdXsr_xKcZ-28" value="&lt;span style=&quot;border-bottom: 1px dotted&quot;&gt;cliente_id&lt;/span&gt;" style="ellipse;whiteSpace=wrap;html=1;align=center;" vertex="1" parent="1">
          <mxGeometry x="250" y="60" width="100" height="40" as="geometry" />
        </mxCell>
        <mxCell id="0sVaL69Y4_VdXsr_xKcZ-31" style="edgeStyle=orthogonalEdgeStyle;rounded=0;orthogonalLoop=1;jettySize=auto;html=1;exitX=0.5;exitY=1;exitDx=0;exitDy=0;" edge="1" parent="1" source="0sVaL69Y4_VdXsr_xKcZ-29">
          <mxGeometry relative="1" as="geometry">
            <mxPoint x="339.99999999999955" y="150" as="targetPoint" />
          </mxGeometry>
        </mxCell>
        <mxCell id="0sVaL69Y4_VdXsr_xKcZ-29" value="&lt;span style=&quot;border-bottom: 1px dotted&quot;&gt;producto_id&lt;/span&gt;" style="ellipse;whiteSpace=wrap;html=1;align=center;" vertex="1" parent="1">
          <mxGeometry x="390" y="60" width="100" height="40" as="geometry" />
        </mxCell>
        <mxCell id="0sVaL69Y4_VdXsr_xKcZ-32" value="" style="endArrow=none;html=1;rounded=0;entryX=0;entryY=0.5;entryDx=0;entryDy=0;" edge="1" parent="1" target="0sVaL69Y4_VdXsr_xKcZ-27">
          <mxGeometry relative="1" as="geometry">
            <mxPoint x="50" y="169.41" as="sourcePoint" />
            <mxPoint x="210" y="169.41" as="targetPoint" />
          </mxGeometry>
        </mxCell>
        <mxCell id="0sVaL69Y4_VdXsr_xKcZ-33" value="" style="endArrow=none;html=1;rounded=0;entryX=0;entryY=0.5;entryDx=0;entryDy=0;" edge="1" parent="1" target="0sVaL69Y4_VdXsr_xKcZ-20">
          <mxGeometry relative="1" as="geometry">
            <mxPoint x="390" y="169.41" as="sourcePoint" />
            <mxPoint x="550" y="169.41" as="targetPoint" />
          </mxGeometry>
        </mxCell>
        <mxCell id="0sVaL69Y4_VdXsr_xKcZ-34" value="1" style="text;html=1;align=center;verticalAlign=middle;whiteSpace=wrap;rounded=0;" vertex="1" parent="1">
          <mxGeometry x="40" y="140" width="60" height="30" as="geometry" />
        </mxCell>
        <mxCell id="0sVaL69Y4_VdXsr_xKcZ-35" value="n" style="text;html=1;align=center;verticalAlign=middle;whiteSpace=wrap;rounded=0;" vertex="1" parent="1">
          <mxGeometry x="230" y="140" width="60" height="30" as="geometry" />
        </mxCell>
        <mxCell id="0sVaL69Y4_VdXsr_xKcZ-36" value="n" style="text;html=1;align=center;verticalAlign=middle;whiteSpace=wrap;rounded=0;" vertex="1" parent="1">
          <mxGeometry x="390" y="140" width="60" height="30" as="geometry" />
        </mxCell>
        <mxCell id="0sVaL69Y4_VdXsr_xKcZ-37" value="1" style="text;html=1;align=center;verticalAlign=middle;whiteSpace=wrap;rounded=0;" vertex="1" parent="1">
          <mxGeometry x="520" y="140" width="60" height="30" as="geometry" />
        </mxCell>
        <mxCell id="0sVaL69Y4_VdXsr_xKcZ-41" style="edgeStyle=orthogonalEdgeStyle;rounded=0;orthogonalLoop=1;jettySize=auto;html=1;exitX=0.5;exitY=1;exitDx=0;exitDy=0;entryX=0.5;entryY=0;entryDx=0;entryDy=0;" edge="1" parent="1" source="0sVaL69Y4_VdXsr_xKcZ-40" target="0sVaL69Y4_VdXsr_xKcZ-27">
          <mxGeometry relative="1" as="geometry" />
        </mxCell>
        <mxCell id="0sVaL69Y4_VdXsr_xKcZ-40" value="Id" style="ellipse;whiteSpace=wrap;html=1;align=center;fontStyle=4;" vertex="1" parent="1">
          <mxGeometry x="310" y="10" width="100" height="40" as="geometry" />
        </mxCell>
        <mxCell id="0sVaL69Y4_VdXsr_xKcZ-42" value="Compra" style="swimlane;childLayout=stackLayout;horizontal=1;startSize=50;horizontalStack=0;rounded=1;fontSize=14;fontStyle=0;strokeWidth=2;resizeParent=0;resizeLast=1;shadow=0;dashed=0;align=center;arcSize=4;whiteSpace=wrap;html=1;" vertex="1" parent="1">
          <mxGeometry x="300" y="280" width="160" height="120" as="geometry" />
        </mxCell>
        <mxCell id="0sVaL69Y4_VdXsr_xKcZ-43" value="id (PK)&lt;br&gt;cliente_id (FK)&lt;br&gt;&lt;div&gt;producto_id (FK)&lt;/div&gt;" style="align=left;strokeColor=none;fillColor=none;spacingLeft=4;fontSize=12;verticalAlign=top;resizable=0;rotatable=0;part=1;html=1;" vertex="1" parent="0sVaL69Y4_VdXsr_xKcZ-42">
          <mxGeometry y="50" width="160" height="70" as="geometry" />
        </mxCell>
        <mxCell id="0sVaL69Y4_VdXsr_xKcZ-44" value="" style="fontSize=12;html=1;endArrow=ERoneToMany;rounded=0;exitX=1;exitY=0.25;exitDx=0;exitDy=0;entryX=0;entryY=0.25;entryDx=0;entryDy=0;" edge="1" parent="1" source="0sVaL69Y4_VdXsr_xKcZ-2" target="0sVaL69Y4_VdXsr_xKcZ-43">
          <mxGeometry width="100" height="100" relative="1" as="geometry">
            <mxPoint x="220" y="330" as="sourcePoint" />
            <mxPoint x="320" y="230" as="targetPoint" />
          </mxGeometry>
        </mxCell>
        <mxCell id="0sVaL69Y4_VdXsr_xKcZ-45" value="" style="fontSize=12;html=1;endArrow=ERoneToMany;rounded=0;entryX=1;entryY=0.25;entryDx=0;entryDy=0;exitX=0;exitY=0.25;exitDx=0;exitDy=0;" edge="1" parent="1" source="0sVaL69Y4_VdXsr_xKcZ-4" target="0sVaL69Y4_VdXsr_xKcZ-43">
          <mxGeometry width="100" height="100" relative="1" as="geometry">
            <mxPoint x="460" y="500" as="sourcePoint" />
            <mxPoint x="560" y="400" as="targetPoint" />
          </mxGeometry>
        </mxCell>
      </root>
    </mxGraphModel>
  </diagram>
</mxfile>
